<svg width="771" height="832" xmlns="http://www.w3.org/2000/svg">
    <path style="fill:#000" d="M278.067 829.308c-8.246-3.031-13.79-9.498-16.255-18.962-1.22-4.684-18.628-29.768-121.63-175.253C74.068 541.71 16.654 460.718 12.593 455.11c-4.06-5.607-8.261-12.132-9.336-14.5-3.45-7.602-2.363-16.55 2.91-23.941 6.498-9.111 304.857-373.9 309.233-378.085 2.766-2.645 6.57-5.176 8.649-5.755 2.04-.569 37.236-8.058 78.21-16.644 68.823-14.42 75.086-15.57 82.183-15.094 8.816.592 16.233 3.946 20.18 9.125 7.983 10.477 261.283 368.822 262.956 372.006 2.814 5.356 3.49 18.293 1.342 25.675-1.429 4.91-15.748 22.42-155.715 190.408-84.778 101.75-157.074 187.86-160.656 191.356-3.583 3.496-8.376 7.175-10.652 8.176-5.308 2.335-150.824 32.997-156.137 32.9-2.2-.04-5.662-.684-7.693-1.43zm73.193-63.038c22.825-4.786 41.638-8.823 41.808-8.973.265-.235-229.845-325.698-231.72-327.741-.659-.718-89.78 17.608-90.853 18.682-.286.286-.074 1.093.472 1.794.545.7 52.803 74.465 116.129 163.92L302.233 776.6l3.763-.815c2.07-.448 22.439-4.73 45.264-9.515zm227.32-205.143 137.57-165.179-117.695-166.16c-64.732-91.387-117.976-166.231-118.32-166.32-1.218-.315-278.909 333.809-278.441 335.027.261.681 53.235 75.742 117.72 166.803l117.245 165.564 2.175-2.278c1.196-1.253 64.082-76.608 139.745-167.457zM122.58 385.256l27.822-5.82 130.413-156.497c71.727-86.074 130.307-156.59 130.178-156.704-.129-.113-14.551 2.82-32.05 6.518-29.716 6.28-32.001 6.916-34.62 9.638C340.43 86.441 92.26 390.706 92.26 391.432c0 .323.562.376 1.25.116.687-.26 13.77-3.091 29.071-6.292z"/>
</svg>
