<svg width="35.442" height="39.906" viewBox="0 0 9.377 10.559" xmlns="http://www.w3.org/2000/svg"><path style="fill:#000;stroke-width:.0165364" d="M103.683 165.342a.143.143 0 0 1-.024-.049 167.465 167.465 0 0 0-1.94-2.092c-.02-.022-.036-.05-.034-.065 0-.014.373-.63.826-1.37l.824-1.343.485-.172c.34-.12.496-.17.52-.162.018.006.481.491 1.03 1.08.78.836.998 1.08 1.003 1.118.005.04-.133.271-.822 1.368a102.13 102.13 0 0 1-.857 1.352c-.018.021-.187.09-.48.194-.25.09-.466.164-.482.166-.015.002-.037-.009-.049-.025zm.497-.266c.197-.07.355-.135.352-.143-.004-.008-.43-.47-.948-1.026-.713-.765-.95-1.01-.974-1.006-.064.009-.732.256-.729.27.008.034 1.895 2.04 1.917 2.036.013-.002.185-.06.382-.131zm1.26-1.485c.43-.686.787-1.258.793-1.27.008-.016-.295-.352-.94-1.045-.524-.562-.958-1.028-.966-1.035-.018-.015-1.603 2.507-1.598 2.542.002.013.402.451.888.973 1.051 1.126 1.016 1.09 1.03 1.086.006-.002.363-.564.793-1.25zm-3.168-.712c.188-.067.306-.117.312-.133.005-.013.352-.571.772-1.24.485-.772.751-1.212.733-1.21a6.513 6.513 0 0 0-.347.12l-.318.113-.755 1.228a68.075 68.075 0 0 0-.754 1.241c0 .007.013.008.028 0a13 13 0 0 1 .33-.12z" transform="translate(-99.34 -157.448)"/></svg>