<?xml version="1.0" encoding="UTF-8" standalone="no"?>
<!-- Created with Inkscape (http://www.inkscape.org/) -->

<svg
   width="76.167686mm"
   height="82.42382mm"
   viewBox="0 0 76.167686 82.42382"
   version="1.1"
   id="svg275"
   xmlns:inkscape="http://www.inkscape.org/namespaces/inkscape"
   xmlns:sodipodi="http://sodipodi.sourceforge.net/DTD/sodipodi-0.dtd"
   xmlns="http://www.w3.org/2000/svg"
   xmlns:svg="http://www.w3.org/2000/svg">
  <sodipodi:namedview
     id="namedview277"
     pagecolor="#ffffff"
     bordercolor="#000000"
     borderopacity="0.25"
     inkscape:showpageshadow="2"
     inkscape:pageopacity="0.0"
     inkscape:pagecheckerboard="0"
     inkscape:deskcolor="#d1d1d1"
     inkscape:document-units="mm"
     showgrid="false" />
  <defs
     id="defs272" />
  <g
     inkscape:label="Layer 1"
     inkscape:groupmode="layer"
     id="layer1"
     transform="translate(-65.745721,-121.57215)">
    <path
       style="fill:#000000;stroke-width:0.264583"
       d="m 92.710217,203.48604 c -0.150641,-0.28147 -0.273891,-0.64827 -0.273891,-0.81509 0,-0.2248 -22.826255,-32.67643 -26.261796,-37.33587 -0.281856,-0.38227 -0.471147,-0.87718 -0.420646,-1.0998 0.0505,-0.22262 7.267031,-9.19723 16.036734,-19.94358 l 15.944912,-19.53881 8.06688,-1.69259 c 5.63547,-1.18243 8.22069,-1.6207 8.57719,-1.4541 0.28068,0.13117 6.59061,8.83084 14.02206,19.33259 10.56471,14.9295 13.51175,19.26654 13.51175,19.88471 0,0.65753 -2.68717,4.0124 -15.96497,19.93194 -8.78074,10.52773 -16.19802,19.34632 -16.48286,19.59685 -0.33641,0.2959 -3.15589,1.0138 -8.04597,2.04867 -4.140441,0.87623 -7.732247,1.59399 -7.981789,1.595 -0.249542,0.001 -0.576964,-0.22844 -0.727604,-0.50992 z m 8.457363,-3.14366 c 3.27421,-0.69241 5.91797,-1.37358 5.875,-1.51372 -0.043,-0.14014 -5.8175,-8.37473 -12.832295,-18.29908 -9.656946,-13.66241 -12.882668,-18.0435 -13.283332,-18.04105 -1.034513,0.006 -12.149332,2.4871 -12.130542,2.70749 0.04815,0.56477 25.667009,36.40927 26.021165,36.40738 0.218281,-0.001 3.075781,-0.56863 6.350004,-1.26102 z m 23.15104,-20.84174 c 8.29468,-9.96426 15.18336,-18.2659 15.30816,-18.44809 0.15388,-0.22464 -3.9249,-6.20423 -12.67299,-18.57893 -7.09494,-10.03622 -12.98991,-18.34935 -13.09993,-18.47361 -0.2444,-0.27605 -30.793554,36.31001 -30.785893,36.86959 0.003,0.2189 5.403329,8.01801 12.000738,17.33134 14.246815,20.11173 13.770905,19.45084 13.992755,19.43171 0.0968,-0.008 6.96247,-8.16775 15.25716,-18.13201 z M 75.621962,161.41249 c 3.119438,-0.66006 5.092748,-1.20204 5.222821,-1.43447 0.114984,-0.20546 6.819086,-8.30397 14.898001,-17.99668 9.351256,-11.2192 14.520016,-17.61983 14.224056,-17.6141 -0.25569,0.005 -2.84614,0.51538 -5.75656,1.13429 l -5.291663,1.12529 -14.604522,17.84956 c -8.032488,9.81726 -14.610691,17.94688 -14.618229,18.06583 -0.0075,0.11894 0.194655,0.15212 0.449316,0.0737 0.254662,-0.0784 2.719213,-0.61995 5.47678,-1.20344 z"
       id="path186" />
  </g>
</svg>
