<?xml version="1.0" encoding="UTF-8" standalone="no"?>
<!DOCTYPE svg PUBLIC "-//W3C//DTD SVG 1.1//EN" "http://www.w3.org/Graphics/SVG/1.1/DTD/svg11.dtd">
<!-- Generated by Microsoft Visio, SVG Export smalllogo.svg Page-1 -->
<svg xmlns="http://www.w3.org/2000/svg" xmlns:xlink="http://www.w3.org/1999/xlink" xmlns:ev="http://www.w3.org/2001/xml-events"
		width="8.5in" height="11in" viewBox="0 0 612 792" xml:space="preserve" color-interpolation-filters="sRGB" class="st2">
	<style type="text/css">
	<![CDATA[
		.st1 {stroke:#000000;stroke-linecap:round;stroke-linejoin:round;stroke-width:6}
		.st2 {fill:none;fill-rule:evenodd;font-size:12px;overflow:visible;stroke-linecap:square;stroke-miterlimit:3}
	]]>
	</style>

	<g>
		<title>Page-1</title>
		<g id="shape22-1" transform="translate(-429.032,-212.842) rotate(-50.7743)">
			<title>Sheet.22</title>
			<path d="M0 792 L142.32 792" class="st1"/>
		</g>
		<g id="shape23-4" transform="translate(-381.181,-230.276) rotate(-50.1944)">
			<title>Sheet.23</title>
			<path d="M0 792 L140.58 792" class="st1"/>
		</g>
		<g id="shape24-7" transform="translate(111.34,-597.261) rotate(-11.8887)">
			<title>Sheet.24</title>
			<path d="M0 792 L43.69 792" class="st1"/>
		</g>
		<g id="shape25-10" transform="translate(21.3397,-487.011) rotate(-11.8887)">
			<title>Sheet.25</title>
			<path d="M0 792 L43.69 792" class="st1"/>
		</g>
		<g id="shape26-13" transform="translate(-385.291,853.79) rotate(-125.311)">
			<title>Sheet.26</title>
			<path d="M0 792 L132.35 792" class="st1"/>
		</g>
		<g id="shape27-16" transform="translate(-342.541,844.79) rotate(-125.311)">
			<title>Sheet.27</title>
			<path d="M0 792 L132.35 792" class="st1"/>
		</g>
		<g id="shape28-19" transform="translate(97.8397,-376.761) rotate(-11.8887)">
			<title>Sheet.28</title>
			<path d="M0 792 L43.69 792" class="st1"/>
		</g>
		<g id="shape29-22" transform="translate(-250.291,734.54) rotate(-125.311)">
			<title>Sheet.29</title>
			<path d="M0 792 L132.35 792" class="st1"/>
		</g>
		<g id="shape30-25" transform="translate(-302.431,-120.026) rotate(-50.1944)">
			<title>Sheet.30</title>
			<path d="M0 792 L140.58 792" class="st1"/>
		</g>
	</g>
</svg>
